<svg width="164" height="43" viewBox="0 0 164 43" fill="none" xmlns="http://www.w3.org/2000/svg">
<path fill-rule="evenodd" clip-rule="evenodd" d="M51.3044 12H52.1822L58 23.4967L63.817 12H64.6948L67 28H64.41L63.049 18.8573L58.4391 28H57.5613L52.9287 18.857L51.5903 28H49L51.3044 12Z" fill="white"/>
<path fill-rule="evenodd" clip-rule="evenodd" d="M72.7564 12V21.5906C72.7564 23.9995 74.6397 25.1935 76.4994 25.1935C78.3836 25.1935 80.2436 23.9994 80.2436 21.5906V12H83V21.5906C83 25.856 79.7622 28 76.4998 28C73.2611 28 70.0004 25.856 70.0004 21.5906V16.6194L72.7564 14.4751H70V12H72.7564Z" fill="white"/>
<path fill-rule="evenodd" clip-rule="evenodd" d="M86 25.44H96V28H86V12H88.6486V22.9944L86 25.44Z" fill="white"/>
<path fill-rule="evenodd" clip-rule="evenodd" d="M95 14.5602V12H108V14.5602H102.831V28H100.123V16.778L102.831 14.5606L95 14.5602Z" fill="white"/>
<path fill-rule="evenodd" clip-rule="evenodd" d="M113 12V28H110V16.7779L113 14.5603H110V12H113Z" fill="white"/>
<path fill-rule="evenodd" clip-rule="evenodd" d="M123.811 23.7049L125.765 22.2115L130.336 28.5068L128.384 30L123.812 23.7049H123.811ZM132 19.9193C132 14.6407 128.006 12.0013 124.012 12.0013C122.847 11.9807 121.691 12.208 120.626 12.6676C119.56 13.1271 118.61 13.8078 117.842 14.6621L119.684 16.5659C120.208 15.9437 120.869 15.4452 121.619 15.1081C122.369 14.771 123.187 14.604 124.012 14.6197C126.697 14.6197 129.404 16.3716 129.404 19.9194C129.404 23.4673 126.698 25.2191 124.012 25.2191C121.304 25.2191 118.62 23.4671 118.62 19.9193C118.586 18.8408 118.887 17.7776 119.485 16.8696H116.534C116.163 17.8449 115.982 18.8793 116.001 19.9193C116.001 25.1978 119.995 27.837 124.012 27.837C128.006 27.8364 132 25.1972 132 19.9193Z" fill="white"/>
<path fill-rule="evenodd" clip-rule="evenodd" d="M150 20.0013C150 25.3338 146.006 28 142.011 28C137.995 28 134.001 25.3351 134.001 20.0013C133.986 18.9525 134.159 17.9093 134.512 16.9198H137.484C136.878 17.8348 136.569 18.9093 136.596 20.0013C136.596 23.5853 139.303 25.3553 142.01 25.3553C144.696 25.3553 147.403 23.5854 147.403 20.0013C147.403 16.4171 144.695 14.6472 142.01 14.6472C141.185 14.6314 140.367 14.8 139.618 15.1405C138.869 15.4809 138.208 15.9842 137.684 16.6127L135.842 14.6893C136.61 13.8263 137.56 13.1386 138.625 12.6743C139.691 12.2101 140.846 11.9804 142.011 12.0013C146.006 12.0016 150 14.668 150 20.0013Z" fill="white"/>
<path fill-rule="evenodd" clip-rule="evenodd" d="M152.684 14.9339C153.39 12.9714 155.576 12 157.921 12C160.022 12.0209 162.031 12.8008 163.521 14.1739L161.723 16.0316C161.216 15.5485 160.611 15.1635 159.943 14.8991C159.274 14.6346 158.556 14.496 157.829 14.4913C156.463 14.4913 155.143 14.9351 155.143 16.4114C155.138 16.5499 155.169 16.6875 155.234 16.8123L152.684 14.9339H152.684ZM164 23.7787C164 26.6481 160.95 28 158.217 28C155.872 28 153.457 27.2188 152 25.4243L154.119 23.884C155.121 25.1298 156.736 25.509 158.308 25.509C159.514 25.509 161.313 25.0871 161.313 23.6946C161.313 20.9933 153.321 21.1406 152.523 17.0255H155.348C156.623 18.9228 164 19.0498 164 23.7777V23.7787Z" fill="white"/>
<path d="M5.97691 0H0V5.88377H5.97691V0Z" fill="#FF174F"/>
<path d="M11.8275 5.82031H5.91406V11.7041H11.8275V5.82031Z" fill="#FF174F"/>
<path d="M5.97691 11.6445H0V17.5276H5.97691V11.6445Z" fill="#FF174F"/>
<path d="M17.6791 0H11.7656V5.88375H17.6791V0Z" fill="#FF174F"/>
<path fill-rule="evenodd" clip-rule="evenodd" d="M0.0626343 21.0239V20.9762C0.0616571 20.0659 0.122149 19.1567 0.243701 18.2545H6.65296V12.4278H12.507V6.60088H18.361V0.222847C19.2694 0.102931 20.1847 0.0428406 21.101 0.0429695H21.1495C32.7992 0.0399676 42.2452 9.43207 42.2474 21.0203C42.2474 32.6123 32.8027 42.0058 21.153 42.0048C9.50515 42.0048 0.0614942 32.6104 0.0625001 21.022L0.0626343 21.0239ZM12.3864 23.9374V18.2546H6.67712V23.9374H3.12846V27.4621H6.67712V23.9374H12.3864ZM26.7742 34.2722C34.1288 34.2675 40.0875 28.3342 40.0846 21.0185C40.0815 13.7028 34.1178 7.77416 26.7633 7.77577C19.4115 7.77577 13.4491 13.7055 13.4475 21.0212C13.4475 28.3437 19.4163 34.277 26.776 34.2722H26.7742Z" fill="#FF174F"/>
<path fill-rule="evenodd" clip-rule="evenodd" d="M20.6172 27.718V17.6473C20.6168 17.0926 20.7286 16.5433 20.9458 16.0323C21.1585 15.5297 21.4663 15.0723 21.8525 14.6851C22.2428 14.3032 22.7013 13.9972 23.2044 13.7827C23.7194 13.5674 24.2724 13.4567 24.831 13.457H24.8808C25.9187 13.4612 26.9181 13.8493 27.6844 14.5457C28.066 14.1966 28.5106 13.9226 28.9948 13.7383C29.4675 13.5524 29.9713 13.4573 30.4796 13.458H30.5338C31.0906 13.4581 31.6417 13.5687 32.155 13.7833C32.6593 13.9966 33.1182 14.303 33.5079 14.686C33.8955 15.0722 34.2034 15.5298 34.4147 16.0333C34.6332 16.5441 34.7463 17.0933 34.7472 17.6483V27.719H31.9276V17.6731C31.9288 17.4846 31.8903 17.298 31.8148 17.1251C31.7396 16.9596 31.6354 16.8088 31.5071 16.6798C31.2416 16.4161 30.8818 16.268 30.5067 16.268C30.1315 16.268 29.7717 16.4161 29.5062 16.6798C29.2434 16.9443 29.0956 17.3008 29.0945 17.6727V27.7183H26.266V17.6726C26.2667 17.4846 26.2299 17.2984 26.1578 17.1246C26.0891 16.9579 25.9876 16.8065 25.8594 16.6792C25.73 16.5517 25.5775 16.4497 25.4101 16.3786C25.2346 16.3066 25.0465 16.2702 24.8568 16.2714C24.6671 16.271 24.4792 16.3074 24.3035 16.3786C24.0492 16.4872 23.8325 16.6676 23.6802 16.8976C23.5279 17.1275 23.4468 17.3968 23.4469 17.6721V27.718L20.6172 27.718Z" fill="#FF174F"/>
</svg>
